<svg xmlns="http://www.w3.org/2000/svg" version="1.1" xmlns:xlink="http://www.w3.org/1999/xlink" xmlns:svgjs="http://svgjs.com/svgjs" width="1440" height="560" preserveAspectRatio="none" viewBox="0 0 1440 560"><g mask="url(&quot;#SvgjsMask1037&quot;)" fill="none"><rect width="1440" height="560" x="0" y="0" fill="rgba(30, 31, 38, 1)"></rect><path d="M320.0071489446574 596.4072985909635L310.2450539882887 484.8260426551472 198.6637980524724 494.5881376115159 208.42589300884111 606.1693935473322z" fill="rgba(3, 218, 192, 1)" class="triangle-float3"></path><path d="M329.273,720.85C383.817,723.205,434.093,691.348,461.397,644.071C488.707,596.783,489.479,538.347,461.886,491.225C434.576,444.587,383.255,421.07,329.273,418.436C269.434,415.516,200.186,424.13,172.173,477.087C145.066,528.332,184.128,584.727,215.533,633.457C243.294,676.531,278.076,718.64,329.273,720.85" fill="rgba(3, 218, 192, 1)" class="triangle-float1"></path><path d="M1179.4521226653435 314.07796373392176L1029.4800379961143 377.7373368104641 1093.1394110726567 527.7094214796932 1243.1114957418858 464.05004840315087z" fill="rgba(3, 218, 192, 1)" class="triangle-float2"></path><path d="M529.4844125778409 205.4465689183499L531.1423491765173 110.46344479394327 436.1592250521107 108.80550819526682 434.50128845343426 203.78863231967347z" fill="rgba(3, 218, 192, 1)" class="triangle-float3"></path><path d="M1302.3956064136987 408.9958925537863L1269.495325576856 323.28773072037205 1183.7871637434416 356.18801155721485 1216.6874445802846 441.8961733906291z" fill="rgba(3, 218, 192, 1)" class="triangle-float1"></path><path d="M1276.8787642295454 59.24586427004614L1324.4894602451423 183.6301514800067 1399.3257427291512 94.44374297329385z" fill="rgba(3, 218, 192, 1)" class="triangle-float2"></path><path d="M458.664,414.707C491.89,413.107,518.34,389.604,534.31,360.424C549.57,332.542,552.042,299.522,537.04,271.5C521.145,241.81,492.32,220.326,458.664,219.129C422.931,217.859,388.379,234.888,370.003,265.561C351.126,297.07,350.484,336.797,369.253,368.371C387.637,399.297,422.728,416.437,458.664,414.707" fill="rgba(3, 218, 192, 1)" class="triangle-float2"></path><path d="M743.4879239396461 301.2556723127838L866.6346781127522 358.82289132297274 858.3454403961061 240.28126921466992z" fill="rgba(3, 218, 192, 1)" class="triangle-float1"></path><path d="M1127.3083303923422 295.5729648537558L1179.7718533269044 211.61377758643903 1095.8126660595874 159.15025465187693 1043.3491431250254 243.10944191919373z" fill="rgba(3, 218, 192, 1)" class="triangle-float2"></path><path d="M1316.331780001793 560.1610424689106L1312.1561377364883 440.5862929407941 1192.5813882083717 444.7619352060989 1196.7570304736764 564.3366847342154z" fill="rgba(3, 218, 192, 1)" class="triangle-float3"></path><path d="M396.79399029506186 240.47257469660138L286.2112223547153 208.76347624527 254.5021239033839 319.34624418561657 365.0848918437305 351.05534263694796z" fill="rgba(3, 218, 192, 1)" class="triangle-float3"></path></g><defs><mask id="SvgjsMask1037"><rect width="1440" height="560" fill="#ffffff"></rect></mask><style>
            @keyframes float1 {
                0%{transform: translate(0, 0)}
                50%{transform: translate(-10px, 0)}
                100%{transform: translate(0, 0)}
            }

            .triangle-float1 {
                animation: float1 5s infinite;
            }

            @keyframes float2 {
                0%{transform: translate(0, 0)}
                50%{transform: translate(-5px, -5px)}
                100%{transform: translate(0, 0)}
            }

            .triangle-float2 {
                animation: float2 4s infinite;
            }

            @keyframes float3 {
                0%{transform: translate(0, 0)}
                50%{transform: translate(0, -10px)}
                100%{transform: translate(0, 0)}
            }

            .triangle-float3 {
                animation: float3 6s infinite;
            }
        </style></defs></svg>